<?xml version="1.0" encoding="UTF-8"?>
<!-- Generator: visioncortex VTracer 0.6.5 -->
<svg version="1.1" xmlns="http://www.w3.org/2000/svg" width="200" height="200">
<path d="M0,0 L28,0 L44,4 L56,9 L66,15 L76,23 L85,32 L92,42 L100,58 L104,72 L105,77 L105,105 L101,121 L94,137 L84,151 L73,162 L63,169 L47,177 L33,181 L28,182 L0,182 L-16,178 L-32,171 L-46,161 L-57,150 L-64,140 L-72,124 L-76,110 L-77,105 L-77,77 L-73,61 L-68,49 L-62,39 L-54,29 L-45,20 L-35,13 L-19,5 L-5,1 Z M-12,49 L-16,53 L-16,128 L-14,132 L-12,133 L-5,133 L17,120 L41,106 L56,97 L59,93 L58,87 L53,83 L27,68 L3,54 L-5,49 Z " fill="#fff" transform="translate(86,9)"/>
</svg>
